# xmcd
#
# Track frame offsets:
#	150
#	12575
#	28950
#	45350
#	58412
#	69962
#	83937
#	99335
#	110112
#	129650
#	147150
#	164535
#	180837
#	192800
#
# Disc length: 2747
#
# Revision: 2
# Processed by: cddbd v1.5.1PL0 Copyright (c) Steve Scherf et al.
# Submitted via: EasyCDDAExtractor 7.1.0.1
# Normalized: r1:DSETVAR1
#
DISCID=c10ab90e
DTITLE=Various Artist - Spotlight On Hits - Country 4
DYEAR=1993
DGENRE=Country
TTITLE0=Alan Jackson - Dallas
TTITLE1=Billy Dean - Only The Wind
TTITLE2=Great Plains - Faster Gun
TTITLE3=Suzy Boggus - Outbound Plane
TTITLE4=Vince Gill - Take Your Memory With You
TTITLE5=Clinton Gregory - Play Ruby Play
TTITLE6=Dolly Party - Country Road
TTITLE7=Earl Thomas Conley - Hard Days And Honky Tonk Nights
TTITLE8=Brooks And Dunn - Neon Moon
TTITLE9=Reba McEntire - Is There Life Out There
TTITLE10=Ricky Skaggs - Same O' Love
TTITLE11=Steve Wariner - The Tips Of My Fingers
TTITLE12=Trisha Yearwood - That's What I Like About You
TTITLE13=Marty Stuart - Burn Me Down
EXTD=
EXTT0=
EXTT1=
EXTT2=
EXTT3=
EXTT4=
EXTT5=
EXTT6=
EXTT7=
EXTT8=
EXTT9=
EXTT10=
EXTT11=
EXTT12=
EXTT13=
PLAYORDER=
